<svg width="56" height="56" viewBox="0 0 56 56" fill="none" xmlns="http://www.w3.org/2000/svg">
<rect x="0.5" y="0.5" width="55" height="55" rx="27.5" fill="white" style="fill:white;fill-opacity:1;"/>
<rect x="0.5" y="0.5" width="55" height="55" rx="27.5" stroke="#E8E5E5" style="stroke:#E8E5E5;stroke:color(display-p3 0.9103 0.8994 0.8994);stroke-opacity:1;"/>
<path d="M20.125 20.5C19.4288 20.5 18.7611 20.7766 18.2688 21.2688C17.7766 21.7611 17.5 22.4288 17.5 23.125V32.875C17.5 34.324 18.676 35.5 20.125 35.5H35.875C36.5712 35.5 37.2389 35.2234 37.7312 34.7312C38.2234 34.2389 38.5 33.5712 38.5 32.875V23.125C38.5 22.4288 38.2234 21.7611 37.7312 21.2688C37.2389 20.7766 36.5712 20.5 35.875 20.5H20.125ZM20.5 31.75C20.5 31.5511 20.579 31.3603 20.7197 31.2197C20.8603 31.079 21.0511 31 21.25 31H34.75C34.9489 31 35.1397 31.079 35.2803 31.2197C35.421 31.3603 35.5 31.5511 35.5 31.75C35.5 31.9489 35.421 32.1397 35.2803 32.2803C35.1397 32.421 34.9489 32.5 34.75 32.5H21.25C21.0511 32.5 20.8603 32.421 20.7197 32.2803C20.579 32.1397 20.5 31.9489 20.5 31.75ZM20.875 26.5C20.7273 26.5 20.581 26.4709 20.4445 26.4144C20.308 26.3578 20.184 26.275 20.0795 26.1705C19.975 26.066 19.8922 25.942 19.8356 25.8055C19.7791 25.669 19.75 25.5227 19.75 25.375C19.75 25.2273 19.7791 25.081 19.8356 24.9445C19.8922 24.808 19.975 24.684 20.0795 24.5795C20.184 24.475 20.308 24.3922 20.4445 24.3356C20.581 24.2791 20.7273 24.25 20.875 24.25C21.1734 24.25 21.4595 24.3685 21.6705 24.5795C21.8815 24.7905 22 25.0766 22 25.375C22 25.6734 21.8815 25.9595 21.6705 26.1705C21.4595 26.3815 21.1734 26.5 20.875 26.5ZM31 25.375C31 25.6734 30.8815 25.9595 30.6705 26.1705C30.4595 26.3815 30.1734 26.5 29.875 26.5C29.5766 26.5 29.2905 26.3815 29.0795 26.1705C28.8685 25.9595 28.75 25.6734 28.75 25.375C28.75 25.0766 28.8685 24.7905 29.0795 24.5795C29.2905 24.3685 29.5766 24.25 29.875 24.25C30.1734 24.25 30.4595 24.3685 30.6705 24.5795C30.8815 24.7905 31 25.0766 31 25.375ZM25.375 26.5C25.2273 26.5 25.081 26.4709 24.9445 26.4144C24.808 26.3578 24.684 26.275 24.5795 26.1705C24.475 26.066 24.3922 25.942 24.3356 25.8055C24.2791 25.669 24.25 25.5227 24.25 25.375C24.25 25.2273 24.2791 25.081 24.3356 24.9445C24.3922 24.808 24.475 24.684 24.5795 24.5795C24.684 24.475 24.808 24.3922 24.9445 24.3356C25.081 24.2791 25.2273 24.25 25.375 24.25C25.6734 24.25 25.9595 24.3685 26.1705 24.5795C26.3815 24.7905 26.5 25.0766 26.5 25.375C26.5 25.6734 26.3815 25.9595 26.1705 26.1705C25.9595 26.3815 25.6734 26.5 25.375 26.5ZM35.5 25.375C35.5 25.6734 35.3815 25.9595 35.1705 26.1705C34.9595 26.3815 34.6734 26.5 34.375 26.5C34.0766 26.5 33.7905 26.3815 33.5795 26.1705C33.3685 25.9595 33.25 25.6734 33.25 25.375C33.25 25.0766 33.3685 24.7905 33.5795 24.5795C33.7905 24.3685 34.0766 24.25 34.375 24.25C34.6734 24.25 34.9595 24.3685 35.1705 24.5795C35.3815 24.7905 35.5 25.0766 35.5 25.375ZM23.875 29.5C23.5766 29.5 23.2905 29.3815 23.0795 29.1705C22.8685 28.9595 22.75 28.6734 22.75 28.375C22.75 28.0766 22.8685 27.7905 23.0795 27.5795C23.2905 27.3685 23.5766 27.25 23.875 27.25C24.1734 27.25 24.4595 27.3685 24.6705 27.5795C24.8815 27.7905 25 28.0766 25 28.375C25 28.6734 24.8815 28.9595 24.6705 29.1705C24.4595 29.3815 24.1734 29.5 23.875 29.5ZM29.5 28.375C29.5 28.6734 29.3815 28.9595 29.1705 29.1705C28.9595 29.3815 28.6734 29.5 28.375 29.5C28.0766 29.5 27.7905 29.3815 27.5795 29.1705C27.3685 28.9595 27.25 28.6734 27.25 28.375C27.25 28.0766 27.3685 27.7905 27.5795 27.5795C27.7905 27.3685 28.0766 27.25 28.375 27.25C28.6734 27.25 28.9595 27.3685 29.1705 27.5795C29.3815 27.7905 29.5 28.0766 29.5 28.375ZM32.875 29.5C32.5766 29.5 32.2905 29.3815 32.0795 29.1705C31.8685 28.9595 31.75 28.6734 31.75 28.375C31.75 28.0766 31.8685 27.7905 32.0795 27.5795C32.2905 27.3685 32.5766 27.25 32.875 27.25C33.1734 27.25 33.4595 27.3685 33.6705 27.5795C33.8815 27.7905 34 28.0766 34 28.375C34 28.6734 33.8815 28.9595 33.6705 29.1705C33.4595 29.3815 33.1734 29.5 32.875 29.5Z" fill="#2C5BFF" style="fill:#2C5BFF;fill:color(display-p3 0.1740 0.3557 0.9997);fill-opacity:1;"/>
</svg>
