<svg width="56" height="56" viewBox="0 0 56 56" fill="none" xmlns="http://www.w3.org/2000/svg">
<rect x="0.498535" y="0.49707" width="55.0016" height="55.0029" rx="27.5008" fill="#FFF9C9" style="fill:#FFF9C9;fill:color(display-p3 1.0000 0.9765 0.7882);fill-opacity:1;"/>
<rect x="0.498535" y="0.49707" width="55.0016" height="55.0029" rx="27.5008" stroke="#DBC515" style="stroke:#DBC515;stroke:color(display-p3 0.8588 0.7725 0.0824);stroke-opacity:1;"/>
<g clip-path="url(#clip0_22_759)">
<path d="M20.9995 25.9985C21.5299 25.9985 22.0387 26.2092 22.4137 26.5843C22.7888 26.9594 22.9995 27.4681 22.9995 27.9985C22.9995 28.529 22.7888 29.0377 22.4137 29.4127C22.0387 29.7878 21.5299 29.9985 20.9995 29.9985C20.4691 29.9985 19.9604 29.7878 19.5853 29.4127C19.2102 29.0377 18.9995 28.529 18.9995 27.9985C18.9995 27.4681 19.2102 26.9594 19.5853 26.5843C19.9604 26.2092 20.4691 25.9985 20.9995 25.9985ZM27.9995 25.9985C28.5299 25.9985 29.0387 26.2092 29.4137 26.5843C29.7888 26.9594 29.9995 27.4681 29.9995 27.9985C29.9995 28.529 29.7888 29.0377 29.4137 29.4127C29.0387 29.7878 28.5299 29.9985 27.9995 29.9985C27.4691 29.9985 26.9604 29.7878 26.5853 29.4127C26.2102 29.0377 25.9995 28.529 25.9995 27.9985C25.9995 27.4681 26.2102 26.9594 26.5853 26.5843C26.9604 26.2092 27.4691 25.9985 27.9995 25.9985ZM34.9995 25.9985C35.5299 25.9985 36.0387 26.2092 36.4137 26.5843C36.7888 26.9594 36.9995 27.4681 36.9995 27.9985C36.9995 28.529 36.7888 29.0377 36.4137 29.4127C36.0387 29.7878 35.5299 29.9985 34.9995 29.9985C34.4691 29.9985 33.9604 29.7878 33.5853 29.4127C33.2102 29.0377 32.9995 28.529 32.9995 27.9985C32.9995 27.4681 33.2102 26.9594 33.5853 26.5843C33.9604 26.2092 34.4691 25.9985 34.9995 25.9985Z" fill="#272727" style="fill:#272727;fill:color(display-p3 0.1529 0.1529 0.1529);fill-opacity:1;"/>
</g>
<defs>
<clipPath id="clip0_22_759">
<rect width="24" height="24" fill="white" style="fill:white;fill-opacity:1;" transform="translate(15.9995 15.9985)"/>
</clipPath>
</defs>
</svg>
