<svg width="56" height="56" viewBox="0 0 56 56" fill="none" xmlns="http://www.w3.org/2000/svg">
<rect x="0.5" y="0.49707" width="55.0016" height="55.0029" rx="27.5008" fill="white" style="fill:white;fill-opacity:1;"/>
<rect x="0.5" y="0.49707" width="55.0016" height="55.0029" rx="27.5008" stroke="#E8E5E5" style="stroke:#E8E5E5;stroke:color(display-p3 0.9103 0.8994 0.8994);stroke-opacity:1;"/>
<path d="M17.5 15.9984L16 17.4984L19.3 22.1199C19.4389 22.3145 19.6224 22.4731 19.835 22.5824C20.0477 22.6918 20.2834 22.7487 20.5225 22.7484H20.6275C20.8247 22.7483 21.02 22.787 21.2023 22.8624C21.3845 22.9378 21.5501 23.0484 21.6895 23.1879L25.702 27.2004L21.7765 31.1814C21.1051 30.9838 20.3969 30.9453 19.708 31.0691C19.0191 31.1928 18.3686 31.4754 17.8079 31.8944C17.2473 32.3134 16.792 32.8572 16.4782 33.4828C16.1644 34.1084 16.0006 34.7985 16 35.4984C16.0009 36.1433 16.1404 36.7805 16.4091 37.3668C16.6777 37.9531 17.0693 38.4748 17.5572 38.8965C18.045 39.3182 18.6179 39.6302 19.2369 39.8112C19.8559 39.9922 20.5065 40.0381 21.1448 39.9457C21.783 39.8533 22.394 39.6248 22.9362 39.2756C23.4784 38.9265 23.9393 38.4649 24.2875 37.9221C24.6358 37.3793 24.8633 36.768 24.9546 36.1296C25.046 35.4912 24.999 34.8406 24.817 34.2219L28.798 30.2964L30.25 31.7484L29.7925 33.1194C29.7046 33.3837 29.692 33.6672 29.7561 33.9382C29.8202 34.2092 29.9585 34.457 30.1555 34.6539L35.0605 39.5589C35.1995 39.6987 35.3647 39.8096 35.5467 39.8853C35.7287 39.961 35.9239 40 36.121 40C36.3181 40 36.5133 39.961 36.6953 39.8853C36.8773 39.8096 37.0425 39.6987 37.1815 39.5589L39.5605 37.1799C39.7003 37.0409 39.8112 36.8757 39.8869 36.6937C39.9626 36.5117 40.0016 36.3165 40.0016 36.1194C40.0016 35.9223 39.9626 35.7271 39.8869 35.5451C39.8112 35.3631 39.7003 35.1979 39.5605 35.0589L34.6555 30.1539C34.4586 29.9569 34.2108 29.8186 33.9398 29.7545C33.6688 29.6904 33.3853 29.703 33.121 29.7909L31.75 30.2484L30.31 28.8084L34.33 24.8439C34.9969 25.0219 35.6957 25.0444 36.3727 24.9096C37.0496 24.7748 37.6866 24.4864 38.2344 24.0665C38.7823 23.6467 39.2264 23.1066 39.5325 22.488C39.8386 21.8693 39.9985 21.1886 40 20.4984C40 20.0934 39.949 19.7049 39.847 19.3329L36.637 22.5444L34 21.9984L33.454 19.3629L36.6655 16.1514C35.9015 15.946 35.0969 15.9456 34.3328 16.1503C33.5686 16.355 32.8719 16.7575 32.3129 17.3173C31.7539 17.877 31.3524 18.5743 31.1487 19.3387C30.9451 20.1031 30.9466 20.9077 31.153 21.6714L27.193 25.6884L23.1895 21.6879C22.9082 21.4067 22.7501 21.0252 22.75 20.6274V20.5209C22.75 20.282 22.693 20.0466 22.5837 19.8343C22.4744 19.6219 22.3159 19.4387 22.1215 19.2999L17.5 15.9984ZM31.969 31.9674C32.0387 31.8976 32.1214 31.8422 32.2126 31.8043C32.3037 31.7665 32.4013 31.7471 32.5 31.7471C32.5987 31.7471 32.6963 31.7665 32.7874 31.8043C32.8786 31.8422 32.9613 31.8976 33.031 31.9674L37.402 36.3399C37.5386 36.4814 37.6142 36.6708 37.6125 36.8675C37.6108 37.0641 37.5319 37.2522 37.3929 37.3913C37.2538 37.5303 37.0657 37.6092 36.8691 37.6109C36.6724 37.6126 36.483 37.537 36.3415 37.4004L31.969 33.0294C31.8992 32.9597 31.8437 32.877 31.8059 32.7859C31.7681 32.6947 31.7487 32.5971 31.7487 32.4984C31.7487 32.3998 31.7681 32.3021 31.8059 32.211C31.8437 32.1198 31.8992 32.0371 31.969 31.9674ZM20.5 32.4984L21.2065 32.8614L22 32.9004L22.4305 33.5679L23.098 33.9984L23.137 34.7919L23.5 35.4984L23.137 36.2049L23.098 36.9984L22.4305 37.4289L22 38.0964L21.2065 38.1354L20.5 38.4984L19.7935 38.1354L19 38.0964L18.5695 37.4289L17.902 36.9984L17.863 36.2049L17.5 35.4984L17.863 34.7919L17.902 33.9984L18.5695 33.5679L19 32.9004L19.7935 32.8614L20.5 32.4984Z" fill="#2C5BFF" style="fill:#2C5BFF;fill:color(display-p3 0.1740 0.3557 0.9997);fill-opacity:1;"/>
</svg>
