<svg width="56" height="56" viewBox="0 0 56 56" fill="none" xmlns="http://www.w3.org/2000/svg">
<rect x="0.498535" y="0.498535" width="55.0016" height="55.0029" rx="27.5008" fill="white" style="fill:white;fill-opacity:1;"/>
<rect x="0.498535" y="0.498535" width="55.0016" height="55.0029" rx="27.5008" stroke="#E8E5E5" style="stroke:#E8E5E5;stroke:color(display-p3 0.9103 0.8994 0.8994);stroke-opacity:1;"/>
<path d="M16.8904 30.7339C16.395 29.908 16.1333 28.963 16.1333 27.9999C16.1333 27.0368 16.395 26.0918 16.8904 25.2659C17.0427 25.0117 17.2466 24.7921 17.4888 24.6213C17.7311 24.4506 18.0064 24.3324 18.2971 24.2743L20.6953 23.7941C20.8384 23.7658 20.9674 23.6893 21.0608 23.5774L23.9903 20.06C25.6647 18.0484 26.5033 17.0441 27.2499 17.3146C27.9993 17.5852 27.9993 18.8941 27.9993 21.512V34.4907C27.9993 37.1072 27.9993 38.4147 27.2513 38.6867C26.5048 38.9558 25.6661 37.9514 23.9917 35.9413L21.058 32.4225C20.9649 32.3109 20.8364 32.2344 20.6939 32.2058L18.2957 31.7256C18.005 31.6675 17.7297 31.5493 17.4874 31.3785C17.2452 31.2078 17.0427 30.9882 16.8904 30.7339Z" fill="#272727" style="fill:#272727;fill:color(display-p3 0.1529 0.1529 0.1529);fill-opacity:1;"/>
<path d="M31.5923 22.9909C32.914 24.3126 33.6597 26.1031 33.6669 27.9722C33.674 29.8414 32.9421 31.6376 31.6305 32.9693M37.43 19.9863C39.5448 22.1008 40.738 24.9655 40.7497 27.9559C40.7613 30.9464 39.5905 33.8203 37.4924 35.9512" stroke="#272727" style="stroke:#272727;stroke:color(display-p3 0.1529 0.1529 0.1529);stroke-opacity:1;" stroke-width="2.83317" stroke-linecap="round"/>
</svg>
